<svg id="Layer_1" data-name="Layer 1" xmlns="http://www.w3.org/2000/svg" viewBox="0 0 596 178"><defs><style>.cls-1{fill:#3e4c52;}.cls-2{fill:#7ac943;}</style></defs><path class="cls-1" d="M132.44,68.69h4.16q-4.11,7.17-4.11,17.77a79.45,79.45,0,0,0,2.57,18.8q4.26,20.17,4.27,30.26a30.31,30.31,0,0,1-.34,4.95q-1.55,8.66-11.61,10.32a2.65,2.65,0,0,0-2.24,2.59v14.88a2.63,2.63,0,0,0,2.34,2.61,55.36,55.36,0,0,0,6.38.37q19.14,0,27.52-10.77,7.69-10.93,7.69-22.73,0-10.94-4.27-29.23L163.09,100a67.22,67.22,0,0,1-1.71-14.18q0-8.2,2.91-13.5A9.09,9.09,0,0,1,169,69a2.07,2.07,0,0,0,1.58-2V55.92A2.62,2.62,0,0,0,168,53.3h-35.1a2.62,2.62,0,0,0-2.62,2.62v10.6A2.17,2.17,0,0,0,132.44,68.69Z"/><path class="cls-1" d="M184.84,68.69H246.5v1.88q-4.27,1.37-17.61,7.18T201.89,90q-10.19,4.77-15.81,7.79a5.58,5.58,0,0,0-2.93,5.54c.7,6.28,2.12,19.07,2.87,25.8a5.58,5.58,0,0,0,4.69,4.89q10.6,1.69,25.19,7.51,21,9.92,30.6,22.9h26.78a2.61,2.61,0,0,0,2.62-2.61V55.92a2.62,2.62,0,0,0-2.62-2.62H185.36a2.63,2.63,0,0,0-2.62,2.62V66.59A2.1,2.1,0,0,0,184.84,68.69Zm61.66,68.37q-4.62-7.19-14.7-13.08t-16.41-7.26l31.11-12.65Z"/><path class="cls-1" d="M289.57,77.58a2.57,2.57,0,0,0,2.57,2.56h0a28.35,28.35,0,0,1,6.75,1,25.19,25.19,0,0,1,8.29,4.11,22.8,22.8,0,0,1,7.09,9.06q2.82,6,2.82,15.89-.34,16.57-8.55,23.08a19.29,19.29,0,0,1-12.13,4.1h0a2.62,2.62,0,0,0-2.56,3.17l3,13.91a5,5,0,0,0,4.45,3.9c1.57.14,3.13.21,4.67.21a46.12,46.12,0,0,0,22.91-6.15q14.69-8.37,17.77-31.28,2.22,0,6.24,2.73a27.66,27.66,0,0,1,6.58,6.16v31.74a2.61,2.61,0,0,0,2.62,2.61h24.45a2.5,2.5,0,0,0,2.5-2.5v-106a2.62,2.62,0,0,0-2.62-2.62H292.19a2.63,2.63,0,0,0-2.62,2.62Zm69.91-8.89v36.57l-.68-.17q-3.76-2.57-12.14-5.3Q345.8,86,339.14,78.17t-13.85-9.48Z"/><rect class="cls-1" x="402.72" y="53.3" width="31.45" height="111.1" rx="2.62"/><path class="cls-1" d="M563.73,9.38a60.13,60.13,0,0,0-16.15-6.07A93.15,93.15,0,0,0,526,1q-15.9,0-34.44,5.47a127,127,0,0,0-34.68,16.75,5.7,5.7,0,0,0-2.5,4.74v12.1a2.61,2.61,0,0,0,3.89,2.28q28.18-15.71,57-15.7a83.68,83.68,0,0,1,22,2.48c6,1.65,10.17,3.39,12.57,5.21q8.37,5.47,8.37,14.7V68.69l.17,92.93a2.61,2.61,0,0,0,2.62,2.61H584.7a2.62,2.62,0,0,0,2.62-2.62V48.35Q586.3,22.54,563.73,9.38Z"/><path class="cls-1" d="M481,176a14.64,14.64,0,0,1-10.7-4.36,14.49,14.49,0,0,1-4.37-10.58A14.89,14.89,0,0,1,481,146a14.47,14.47,0,0,1,10.56,4.36,15.14,15.14,0,0,1,0,21.27A14.48,14.48,0,0,1,481,176Z"/><path class="cls-1" d="M450.48,52.8a2.62,2.62,0,0,0-2.63,2.62V68.17l.51.52,3.93.68q11.28,1.89,18.29,8.21a18.06,18.06,0,0,1,5.47,10.25l.17,2.22q0,8.55-7.35,14.19a43.55,43.55,0,0,1-17.13,7.84,4,4,0,0,0-3,4.46l2.78,19.84a3.62,3.62,0,0,0,2.19,2.83L465,143.9a23.32,23.32,0,0,1,38.58,16l11.28,4.67h26.78a2.61,2.61,0,0,0,2.62-2.61V59a5.78,5.78,0,0,0-5.74-5.77Zm64.37,89-31.45-13.5a37.07,37.07,0,0,0,15.73-8q9-8.55,9.65-15.73c.4-4.79.6-7.69.6-8.72a32.39,32.39,0,0,0-6-19q-5.47-6.31-9.92-8.2h21.37Z"/><path class="cls-2" d="M98.65,156.79a3.25,3.25,0,0,1-1.64-.47L21.88,112.88a3.33,3.33,0,0,1,0-5.76L97,63.68a3.24,3.24,0,0,1,1.64-.46A3.36,3.36,0,0,1,102,66.56v86.87a3.1,3.1,0,0,1-1,2.37,3.51,3.51,0,0,1-2.37,1Z"/><path class="cls-1" d="M90,81.6v56.8L40.87,110,90,81.6m8.65-30.38A15.18,15.18,0,0,0,91,53.3L15.87,96.73a15.33,15.33,0,0,0,0,26.54L91,166.7a15.3,15.3,0,0,0,23-13.26V66.57A15.35,15.35,0,0,0,98.65,51.22Z"/></svg>