<svg id="Layer_1" data-name="Layer 1" xmlns="http://www.w3.org/2000/svg" viewBox="0 0 200 200"><defs><style>.cls-1{fill:#ccc;}.cls-2{fill:none;}</style></defs><path class="cls-1" d="M129,70.2a.78.78,0,0,1,.78.78v58.36a.78.78,0,0,1-.78.78H70.65a.78.78,0,0,1-.77-.78V71a.78.78,0,0,1,.77-.78H129m0-5H70.65A5.77,5.77,0,0,0,64.88,71v58.36a5.77,5.77,0,0,0,5.77,5.78H129a5.78,5.78,0,0,0,5.78-5.78V71A5.78,5.78,0,0,0,129,65.2Z"/><path class="cls-1" d="M118.27,127.83l-7.42,7.43H69a4.22,4.22,0,0,1-4.2-4.21V102.53L78.89,88.45a4.21,4.21,0,0,1,6,0l33.43,33.43A4.21,4.21,0,0,1,118.27,127.83Z"/><path class="cls-1" d="M135,115.65v15.4a4.22,4.22,0,0,1-4.2,4.21H84.36L108,111.61l8.5-8.5a4.21,4.21,0,0,1,5.95,0Z"/><circle class="cls-1" cx="113.57" cy="81.95" r="6.66"/><rect class="cls-2" x="0.2" y="0.2" width="199.6" height="199.6"/></svg>